<?xml version="1.0" encoding="UTF-8" standalone="no"?>
<svg
   xmlns:dc="http://purl.org/dc/elements/1.1/"
   xmlns:cc="http://creativecommons.org/ns#"
   xmlns:rdf="http://www.w3.org/1999/02/22-rdf-syntax-ns#"
   xmlns:svg="http://www.w3.org/2000/svg"
   xmlns="http://www.w3.org/2000/svg"
   xmlns:sodipodi="http://sodipodi.sourceforge.net/DTD/sodipodi-0.dtd"
   xmlns:inkscape="http://www.inkscape.org/namespaces/inkscape"
   viewBox="0 0 669.70477 111.27613"
   height="111.27613"
   width="669.70477"
   xml:space="preserve"
   id="svg2"
   version="1.1"
   inkscape:version="0.91 r13725"
   sodipodi:docname="TourRadar_logo.svg"><sodipodi:namedview
     pagecolor="#ffffff"
     bordercolor="#666666"
     borderopacity="1"
     objecttolerance="10"
     gridtolerance="10"
     guidetolerance="10"
     inkscape:pageopacity="0"
     inkscape:pageshadow="2"
     inkscape:window-width="1920"
     inkscape:window-height="1017"
     id="namedview18"
     showgrid="false"
     fit-margin-top="0"
     fit-margin-left="0"
     fit-margin-right="0"
     fit-margin-bottom="0"
     inkscape:zoom="0.32796344"
     inkscape:cx="323.2608"
     inkscape:cy="56.718794"
     inkscape:window-x="-8"
     inkscape:window-y="-8"
     inkscape:window-maximized="1"
     inkscape:current-layer="svg2" /><metadata
     id="metadata8"><rdf:RDF><cc:Work
         rdf:about=""><dc:format>image/svg+xml</dc:format><dc:type
           rdf:resource="http://purl.org/dc/dcmitype/StillImage" /><dc:title></dc:title></cc:Work></rdf:RDF></metadata><defs
     id="defs6" /><g
     transform="matrix(1.3333333,0,0,-1.3333333,-115.81253,225.22399)"
     id="g10"><g
       transform="scale(0.1,0.1)"
       id="g12"><path
         id="path14"
         style="fill:#479ada;fill-opacity:1;fill-rule:nonzero;stroke:none"
         d="m 2525.75,865.922 172,0 0,419.918 c 28.82,26.2 92.96,70.67 188.61,77.25 23.59,1.24 34.13,0.65 34.13,0.65 l 0,165.88 c 0,0 -10.54,0.11 -34.13,0.11 -94.41,0 -157.51,-58.41 -191.59,-95.15 l 0,84.68 -169.02,0 0,-653.338"
         inkscape:connector-curvature="0" /><path
         id="path16"
         style="fill:#479ada;fill-opacity:1;fill-rule:nonzero;stroke:none"
         d="m 3188.37,1529.73 c -91.8,0 -153.93,-55.17 -188.62,-91.99 l 0,-151.9 c 28.82,26.2 92.98,70.67 188.62,77.25 23.59,1.24 34.13,0.65 34.13,0.65 l 0,165.88 c 0,0 -10.54,0.11 -34.13,0.11"
         inkscape:connector-curvature="0" /><path
         id="path18"
         style="fill:#479ada;fill-opacity:1;fill-rule:nonzero;stroke:none"
         d="m 2975.48,1285.84 c -3.03,-0.09 -6.3,-0.25 -9.96,-0.42 -57.7,-3.97 -103.84,-21.75 -137.77,-40.97 l 0,-378.528 172,0 0,419.918 -24.27,0"
         inkscape:connector-curvature="0" /><path
         id="path20"
         style="fill:#479ada;fill-opacity:1;fill-rule:nonzero;stroke:none"
         d="m 1643.24,1322.5 c 0,48.55 -38.03,70.8 -111.37,70.8 -73.43,0 -111.38,-22.25 -111.38,-70.8 l 0,-258.14 c 0,-49.8 37.95,-72.098 111.38,-72.098 73.34,0 111.37,22.298 111.37,72.098 z m -394.49,14.44 c 0,116.71 90.46,192.73 283.12,192.73 192.6,0 283.14,-76.02 283.14,-192.73 l 0,-286.99 c 0,-117.919 -90.54,-193.989 -283.14,-193.989 -192.66,0 -283.12,76.07 -283.12,193.989 l 0,286.99"
         inkscape:connector-curvature="0" /><path
         id="path22"
         style="fill:#479ada;fill-opacity:1;fill-rule:nonzero;stroke:none"
         d="m 1197.6,1523.68 -155.21,0 -0.03,165.5 -173.766,0 0,-626.99 c 0,-129.069 59.187,-194.928 252.806,-194.928 l 70.31,0 0,142.188 -43.97,0 c -73.75,0 -105.33,22.37 -105.33,71.14 l -0.05,279.39 155.21,0 0.03,163.7"
         inkscape:connector-curvature="0" /><path
         id="path24"
         style="fill:#479ada;fill-opacity:1;fill-rule:nonzero;stroke:none"
         d="m 4272.9,1064.31 c -27.53,-20.98 -86.52,-60.25 -150.74,-60.25 -61.59,0 -72.13,34.01 -72.13,69.43 l 0,237.23 c 0,34.11 10.54,68.19 72.13,68.19 64.22,0 123.21,-39.34 150.74,-60.32 z m 171.85,621.08 -171.85,0 0,-227.88 c -38.05,28.88 -103.51,70.8 -204.49,70.8 -129.73,0 -190,-74.74 -190,-191.37 l 0,-290.96 c 0,-116.679 60.27,-191.371 190,-191.371 104.74,0 171.62,44.481 208.3,73.321 l 0,-62.93 168.04,0 0,820.39"
         inkscape:connector-curvature="0" /><path
         id="path26"
         style="fill:#479ada;fill-opacity:1;fill-rule:nonzero;stroke:none"
         d="m 3632.15,1048.64 c -30.08,-22.3 -83.94,-56.378 -144.16,-56.378 -39.37,0 -65.58,11.798 -65.58,51.118 l 0,20.98 c 0,34.08 11.85,59.01 62.87,59.01 l 146.87,0 z m 169.05,292.22 c 0,116.71 -72.06,188.81 -263.43,188.81 -187.37,0 -264.64,-72.1 -264.64,-188.81 l 0,-37.54 159.87,0 0,31.75 c 0.76,45.71 27.25,66.14 100.83,66.14 76.02,0 98.32,-26.21 98.32,-73.45 l 0,-83.81 -180.92,0 c -129.68,0 -196.56,-77.4 -196.56,-165.18 l 0,-58.98 c 0,-86.52 60.31,-163.829 188.69,-163.829 91.81,0 155.98,40.648 194,72.098 l 0.18,-0.329 0,-61.332 163.66,0 0,474.462"
         inkscape:connector-curvature="0" /><path
         id="path28"
         style="fill:#479ada;fill-opacity:1;fill-rule:nonzero;stroke:none"
         d="m 4895.26,1047.32 c -30.19,-22.3 -83.91,-56.41 -144.26,-56.41 -39.22,0 -65.51,11.84 -65.51,51.15 l 0,20.94 c 0,34.1 11.8,59.01 62.93,59.01 l 146.84,0 z m -358.94,254.68 159.81,0 0,31.73 c 0.76,45.74 27.16,66.14 100.75,66.14 76.05,0 98.38,-26.27 98.38,-73.4 l 0,-83.86 -180.9,0 c -129.75,0 -196.6,-77.4 -196.6,-165.18 l 0,-58.98 c 0,-86.419 60.33,-163.841 188.76,-163.841 91.71,0 155.95,40.661 193.92,72.141 l 0.2,-0.359 0,-61.391 163.56,0 0.13,1.07 0,473.5 c 0,116.68 -72.16,188.74 -263.5,188.74 -187.35,0 -264.51,-72.06 -264.51,-188.74 l 0,-37.57"
         inkscape:connector-curvature="0" /><path
         id="path30"
         style="fill:#479ada;fill-opacity:1;fill-rule:nonzero;stroke:none"
         d="m 5140.48,865.922 172,0 0,419.918 c 28.82,26.2 92.96,70.67 188.61,77.25 23.59,1.24 34.13,0.65 34.13,0.65 l 0,165.88 c 0,0 -10.54,0.11 -34.13,0.11 -94.41,0 -157.51,-58.41 -191.59,-95.15 l 0,84.68 -169.02,0 0,-653.338"
         inkscape:connector-curvature="0" /><path
         id="path32"
         style="fill:#479ada;fill-opacity:1;fill-rule:nonzero;stroke:none"
         d="m 2449.39,1519.26 0.11,-652.862 -167.78,0 0,61.661 c -34.08,-30.18 -97,-72.098 -201.87,-72.098 -119.24,0 -188.69,73.391 -188.69,175.579 l 0,487.72 171.62,0 0.08,-444.43 c 0,-47.18 15.7,-69.5 70.74,-69.5 64.22,0 117.98,36.76 144.17,57.69 l 0,456.24"
         inkscape:connector-curvature="0" /><path
         id="path34"
         style="fill:#479ada;fill-opacity:1;fill-rule:nonzero;stroke:none"
         d="m 5791.24,1521.15 32.1,-89.95 32.32,89.95 35.72,0 0,-125.68 -23.05,0 0,101.39 -34.77,-101.39 -20.1,0 -35.1,101.39 0,-101.39 -23.05,0 0,125.68 z m -164.37,-20.98 0,20.98 107.12,0 0,-20.98 -41.08,0 0,-104.7 -24.96,0 0,104.7 -41.08,0"
         inkscape:connector-curvature="0" /></g></g></svg>